<svg width="900" height="900" viewBox="0 0 900 900" fill="none" xmlns="http://www.w3.org/2000/svg"><rect width="900" height="900" rx="40" fill="#09111D"/><circle cx="242" cy="168" r="122" fill="#6CBFFF" fill-opacity="0.16"/><circle cx="700" cy="250" r="146" fill="#77F2DA" fill-opacity="0.14"/><path d="M262 282C262 232 302 192 352 192H548C598 192 638 232 638 282V706C638 746 606 778 566 778H334C294 778 262 746 262 706V282Z" fill="#EAF3FF" fill-opacity="0.08" stroke="rgba(255,255,255,0.22)"/><rect x="306" y="142" width="288" height="98" rx="20" fill="#DCE8FD" fill-opacity="0.13"/><rect x="314" y="364" width="272" height="192" rx="28" fill="#F8FCFF"/><rect x="346" y="410" width="148" height="20" rx="10" fill="#162535"/><rect x="346" y="448" width="194" height="14" rx="7" fill="#657C98"/><rect x="346" y="476" width="164" height="14" rx="7" fill="#657C98"/><text x="348" y="560" fill="#09111D" font-family="Arial" font-size="38" font-weight="800">TIRZEPATIDE</text><text x="348" y="605" fill="#546C88" font-family="Arial" font-size="24" font-weight="700">Mounjaro compound</text></svg>