<svg width="1600" height="1100" viewBox="0 0 1600 1100" fill="none" xmlns="http://www.w3.org/2000/svg"><rect width="1600" height="1100" rx="60" fill="#09111D"/><circle cx="255" cy="187" r="154" fill="#77F2DA" fill-opacity="0.24"/><circle cx="1260" cy="224" r="176" fill="#6CBFFF" fill-opacity="0.24"/><circle cx="1020" cy="760" r="220" fill="#77F2DA" fill-opacity="0.12"/><path d="M210 838C210 787 251 746 302 746H545C596 746 637 787 637 838V927C637 966 606 997 567 997H280C241 997 210 966 210 927V838Z" fill="#EAF3FF" fill-opacity="0.08" stroke="rgba(255,255,255,0.26)"/><rect x="255" y="683" width="337" height="82" rx="18" fill="#D7E2F5" fill-opacity="0.1"/><rect x="285" y="608" width="280" height="80" rx="18" fill="#EAF3FF" fill-opacity="0.12"/><rect x="296" y="796" width="256" height="92" rx="18" fill="#F8FCFF"/><rect x="320" y="819" width="110" height="15" rx="7.5" fill="#203149"/><rect x="320" y="847" width="180" height="11" rx="5.5" fill="#5B728F"/><path d="M255 932H592" stroke="#77F2DA" stroke-opacity="0.5" stroke-width="8" stroke-linecap="round"/><path d="M890 650C890 594 936 548 992 548H1234C1290 548 1336 594 1336 650V948C1336 975 1315 996 1288 996H938C911 996 890 975 890 948V650Z" fill="#EAF3FF" fill-opacity="0.08" stroke="rgba(255,255,255,0.24)"/><rect x="940" y="478" width="346" height="92" rx="18" fill="#DCE8FD" fill-opacity="0.11"/><path d="M1028 206C1048 163 1106 163 1126 206L1218 400H936L1028 206Z" fill="#EAF3FF" fill-opacity="0.14"/><path d="M1076 272C1085 252 1114 252 1123 272L1168 370H1031L1076 272Z" fill="#77F2DA" fill-opacity="0.15"/><rect x="963" y="635" width="300" height="110" rx="20" fill="#F8FCFF"/><rect x="998" y="672" width="110" height="18" rx="9" fill="#203149"/><rect x="998" y="705" width="190" height="12" rx="6" fill="#5B728F"/><text x="328" y="895" fill="#09111D" font-family="Arial" font-size="48" font-weight="700">PYROX</text><text x="328" y="945" fill="#5B728F" font-family="Arial" font-size="26" font-weight="700">BIO LAB SYSTEM</text></svg>