<svg width="900" height="900" viewBox="0 0 900 900" fill="none" xmlns="http://www.w3.org/2000/svg"><rect width="900" height="900" rx="40" fill="#0A121D"/><circle cx="240" cy="170" r="120" fill="#77F2DA" fill-opacity="0.18"/><circle cx="690" cy="220" r="150" fill="#6CBFFF" fill-opacity="0.16"/><path d="M250 280C250 231 289 192 338 192H562C611 192 650 231 650 280V708C650 747 619 778 580 778H320C281 778 250 747 250 708V280Z" fill="#EAF3FF" fill-opacity="0.08" stroke="rgba(255,255,255,0.22)"/><rect x="296" y="144" width="308" height="96" rx="20" fill="#DCE8FD" fill-opacity="0.13"/><rect x="306" y="366" width="288" height="188" rx="28" fill="#F8FCFF"/><rect x="342" y="414" width="170" height="20" rx="10" fill="#162535"/><rect x="342" y="453" width="210" height="14" rx="7" fill="#657C98"/><rect x="342" y="480" width="130" height="14" rx="7" fill="#657C98"/><text x="352" y="566" fill="#09111D" font-family="Arial" font-size="34" font-weight="800">RETATRUTIDE</text><text x="388" y="607" fill="#546C88" font-family="Arial" font-size="26" font-weight="700">10mg/ml</text></svg>
